<?xml version="1.0" encoding="utf-8"?>
<!-- Generator: Adobe Illustrator 26.0.2, SVG Export Plug-In . SVG Version: 6.00 Build 0)  -->
<svg version="1.1" id="Layer_1" xmlns="http://www.w3.org/2000/svg" xmlns:xlink="http://www.w3.org/1999/xlink" x="0px" y="0px"
	 viewBox="560 300 780 480" style="enable-background:new 560 300 780 480;" xml:space="preserve">
<style type="text/css">
	.st0{fill-rule:evenodd;clip-rule:evenodd;fill:#E04403;}
	.st1{fill:#081F2D;}
</style>
<g>
	<path class="st0" d="M938.1,330.3L646.8,493.4l0,54.4c286.5-132,308.8-132.7,583.6-0.1v-54.3L938.1,330.3L938.1,330.3z"/>
	<g>
		<path class="st1" d="M690.7,690.4c4.9,6.3,7.3,13.4,7.3,21.5c0,11.6-4.1,20.8-12.2,27.6c-8.1,6.8-19.4,10.2-33.9,10.2h-64.7V610.8
			h62.5c14.1,0,25.2,3.2,33.1,9.7c8,6.5,12,15.2,12,26.3c0,8.2-2.1,15-6.4,20.4c-4.3,5.4-10,9.2-17.1,11.3
			C679.3,680.2,685.8,684.2,690.7,690.4z M621,667h22.2c5.5,0,9.8-1.2,12.8-3.7c3-2.4,4.5-6,4.5-10.8c0-4.7-1.5-8.4-4.5-10.9
			c-3-2.5-7.2-3.8-12.8-3.8H621V667z M659.1,718.5c3.1-2.6,4.7-6.3,4.7-11.2c0-4.9-1.6-8.7-4.8-11.5c-3.2-2.8-7.7-4.2-13.4-4.2H621
			v30.7H646C651.6,722.4,656,721.1,659.1,718.5z"/>
		<path class="st1" d="M808,749.7l-28.9-52.4H771v52.4h-33.8V610.8H794c10.9,0,20.3,1.9,28,5.7c7.7,3.8,13.5,9.1,17.3,15.7
			c3.8,6.7,5.7,14.1,5.7,22.3c0,9.2-2.6,17.5-7.8,24.7c-5.2,7.3-12.9,12.4-23,15.4l32,55H808z M771,673.3h21
			c6.2,0,10.8-1.5,13.9-4.5c3.1-3,4.6-7.3,4.6-12.9c0-5.3-1.5-9.4-4.6-12.5c-3.1-3-7.7-4.5-13.9-4.5h-21V673.3z"/>
		<path class="st1" d="M972.2,725.2h-51.8l-8.3,24.5h-35.4l50.3-138.9h39.2l50.3,138.9h-35.8L972.2,725.2z M963.5,699.1l-17.2-50.8
			l-17,50.8H963.5z"/>
		<path class="st1" d="M1174.8,610.8l-49.3,138.9h-42.3l-49.3-138.9h36l34.4,104.9l34.6-104.9H1174.8z"/>
		<path class="st1" d="M1288.7,725.2h-51.8l-8.3,24.5h-35.4l50.3-138.9h39.2l50.3,138.9H1297L1288.7,725.2z M1280,699.1l-17.2-50.8
			l-17,50.8H1280z"/>
	</g>
</g>
</svg>
